<svg xmlns="http://www.w3.org/2000/svg" width="38" height="58" viewBox="0 0 96 146" overflow="visible">
<rect x="38" y="30" width="18" height="98" fill="#EBCB9C" stroke="#4A3428" stroke-width="3.4" stroke-linejoin="round" stroke-linecap="round"/>
<g stroke="#C9A06E" stroke-width="2"><path d="M40 42 H54 M40 52 H54 M40 62 H54 M40 72 H54 M40 82 H54 M40 92 H54 M40 102 H54 M40 112 H54"/></g>
<rect x="14" y="74" width="14" height="54" fill="#EBCB9C" stroke="#4A3428" stroke-width="3.4" stroke-linejoin="round" stroke-linecap="round"/>
<rect x="44" y="78" width="46" height="44" rx="10" fill="#C9B6F2" stroke="#4A3428" stroke-width="3.4" stroke-linejoin="round" stroke-linecap="round"/>
<ellipse cx="67" cy="102" rx="12" ry="11" fill="#5B4A7A" stroke="#4A3428" stroke-width="3.4" stroke-linejoin="round" stroke-linecap="round"/>
<rect x="4" y="66" width="52" height="11" rx="5.5" fill="#C9B6F2" stroke="#4A3428" stroke-width="3.4" stroke-linejoin="round" stroke-linecap="round"/>
<path d="M26 18 Q58 4 90 18 L90 26 L26 26 Z" fill="#F4A9A8" stroke="#4A3428" stroke-width="3.4" stroke-linejoin="round" stroke-linecap="round"/>
<rect x="24" y="24" width="68" height="11" rx="5.5" fill="#C9B6F2" stroke="#4A3428" stroke-width="3.4" stroke-linejoin="round" stroke-linecap="round"/>
<path d="M10 77 V92" stroke="#4A3428" stroke-width="2"/><circle cx="10" cy="97" r="6" fill="#FFE08A" stroke="#4A3428" stroke-width="3.4" stroke-linejoin="round" stroke-linecap="round"/>
<rect x="4" y="126" width="88" height="14" rx="6" fill="#B49CE6" stroke="#4A3428" stroke-width="3.4" stroke-linejoin="round" stroke-linecap="round"/></svg>